<svg width="1200" height="900" viewBox="0 0 1200 900" fill="none" xmlns="http://www.w3.org/2000/svg" role="img" aria-label="蜡烛">
  <defs>
    <linearGradient id="bg" x1="0" y1="0" x2="1200" y2="900" gradientUnits="userSpaceOnUse">
      <stop stop-color="#fff3d8"/>
      <stop offset="1" stop-color="#dff1ff"/>
    </linearGradient>
    <filter id="shadow" x="-20%" y="-20%" width="140%" height="140%">
      <feDropShadow dx="0" dy="18" stdDeviation="22" flood-color="#6a5140" flood-opacity="0.16"/>
    </filter>
  </defs>
  <rect width="1200" height="900" rx="72" fill="url(#bg)"/>
  <circle cx="1030" cy="140" r="78" fill="white" fill-opacity="0.55"/>
  <circle cx="143" cy="746" r="98" fill="white" fill-opacity="0.4"/>
  <circle cx="995" cy="718" r="122" fill="#fffaf0" fill-opacity="0.55"/>
  <path d="M218 245c34-66 105-101 173-86 48-70 157-68 202 4 65-10 128 39 133 107 54 13 91 61 91 117 0 67-54 121-121 121H245c-79 0-143-64-143-143 0-62 40-115 96-134 5 5 11 10 20 14z" fill="white" fill-opacity="0.76" filter="url(#shadow)"/>
  <path d="M820 281c36-37 93-43 136-18 34-40 96-34 122 12 46 4 82 43 82 90 0 50-41 91-91 91H822c-58 0-105-47-105-105 0-38 21-72 53-90 14 7 31 13 50 20z" fill="white" fill-opacity="0.52"/>
  <g filter="url(#shadow)">
    <rect x="344" y="282" width="512" height="390" rx="46" fill="white" fill-opacity="0.84"/>
    <rect x="388" y="326" width="424" height="260" rx="34" fill="#fff3d8" fill-opacity="0.68"/>
    <circle cx="494" cy="432" r="52" fill="white" fill-opacity="0.74"/>
    <circle cx="706" cy="432" r="52" fill="white" fill-opacity="0.74"/>
    <path d="M514 526c48 42 124 42 172 0" stroke="#7e7166" stroke-width="18" stroke-linecap="round"/>
    <rect x="465" y="616" width="270" height="18" rx="9" fill="#7e7166" fill-opacity="0.22"/>
  </g>
  <text x="600" y="165" text-anchor="middle" fill="#3c332d" font-size="68" font-family="serif" font-weight="700">蜡烛</text>
  <text x="600" y="750" text-anchor="middle" fill="#3c332d" font-size="46" font-family="serif" font-weight="700">许个愿</text>
  <text x="600" y="804" text-anchor="middle" fill="#7e7166" font-size="30" font-family="serif">愿望</text>
  <path d="M197 152l19 39 43 6-31 30 7 42-38-20-38 20 7-42-31-30 43-6 19-39z" fill="#ffe59a" fill-opacity="0.9"/>
  <path d="M1006 545l13 26 29 4-21 20 5 29-26-14-26 14 5-29-21-20 29-4 13-26z" fill="#ffd7dc" fill-opacity="0.92"/>
</svg>
